Coordinates
version=1
nRows=54
nColumns=12
inDegrees=yes

Units are S.I. units (second, meters, Newtons, ...)
Angles are in degrees

endheader
time	SC_y	SC_z	SC_x	AC_y	AC_z	AC_x	GH_y	GH_z	GH_yy	EL_x	PS_y
       0.0               -49.0          4.343          64.06          56.72         -2.463         -19.18          169.6          24.41          23.68          61.16          6.899
   0.01979              -48.99          4.345          64.06          56.72         -2.464         -19.18          169.6           24.4          23.66          61.16           6.91
   0.03957              -48.99          4.346          64.05          56.72         -2.465         -19.17          169.6           24.4          23.65          61.17          6.922
   0.05936              -48.98          4.348          64.05          56.72         -2.466         -19.17          169.6          24.39          23.63          61.18          6.934
   0.07915              -48.98           4.35          64.04          56.73         -2.467         -19.16          169.6          24.39          23.61          61.18          6.947
   0.09893              -48.97          4.352          64.04          56.73         -2.469         -19.16          169.6          24.38          23.59          61.19          6.961
    0.1187              -48.97          4.354          64.03          56.73          -2.47         -19.15          169.6          24.37          23.57           61.2          6.976
    0.1385              -48.96          4.356          64.02          56.73         -2.472         -19.15          169.5          24.37          23.55          61.21          6.992
    0.1583              -48.96          4.359          64.01          56.73         -2.473         -19.14          169.5          24.36          23.53          61.22          7.009
    0.1781              -48.95          4.361          64.01          56.74         -2.475         -19.14          169.5          24.35          23.51          61.23          7.027
    0.1979              -48.94          4.364           64.0          56.74         -2.477         -19.13          169.5          24.34          23.48          61.25          7.047
    0.2177              -48.93          4.367          63.99          56.74         -2.479         -19.12          169.5          24.33          23.45          61.26          7.068
    0.2374              -48.92           4.37          63.98          56.74         -2.481         -19.11          169.4          24.32          23.42          61.27          7.091
    0.2572              -48.91          4.374          63.97          56.75         -2.483         -19.11          169.4          24.31          23.39          61.29          7.115
     0.277               -48.9          4.378          63.96          56.75         -2.486          -19.1          169.4           24.3          23.35          61.31          7.142
    0.2968              -48.89          4.382          63.94          56.75         -2.489         -19.09          169.4          24.28          23.31          61.32          7.171
    0.3166              -48.88          4.386          63.93          56.76         -2.492         -19.08          169.3          24.27          23.27          61.34          7.202
    0.3364              -48.87          4.391          63.91          56.76         -2.495         -19.06          169.3          24.25          23.23          61.36          7.236
    0.3562              -48.85          4.397           63.9          56.77         -2.498         -19.05          169.3          24.24          23.18          61.39          7.274
    0.3759              -48.84          4.402          63.88          56.77         -2.502         -19.04          169.2          24.22          23.12          61.41          7.315
    0.3957              -48.82          4.409          63.86          56.78         -2.506         -19.02          169.2           24.2          23.06          61.44          7.359
    0.4155               -48.8          4.416          63.84          56.78         -2.511         -19.01          169.1          24.17          22.99          61.47          7.409
    0.4353              -48.78          4.424          63.81          56.79         -2.516         -18.99          169.1          24.15          22.92           61.5          7.463
    0.4551              -48.76          4.432          63.79           56.8         -2.522         -18.97          169.0          24.12          22.84          61.54          7.524
    0.4749              -48.73          4.442          63.76           56.8         -2.528         -18.94          169.0          24.09          22.75          61.58          7.591
    0.4947               -48.7          4.452          63.72          56.81         -2.536         -18.92          168.9          24.05          22.65          61.63          7.666
    0.5144              -48.67          4.464          63.69          56.82         -2.543         -18.89          168.8          24.01          22.54          61.68           7.75
    0.5342              -48.64          4.478          63.64          56.84         -2.552         -18.86          168.7          23.97          22.41          61.74          7.844
     0.554              -48.59          4.493           63.6          56.85         -2.563         -18.82          168.6          23.92          22.27          61.81          7.951
    0.5738              -48.55           4.51          63.54          56.86         -2.574         -18.78          168.5          23.86          22.11          61.88          8.073
    0.5936               -48.5           4.53          63.48          56.88         -2.587         -18.73          168.4           23.8          21.92          61.97          8.211
    0.6134              -48.43          4.553          63.41           56.9         -2.602         -18.68          168.2          23.73          21.71          62.06           8.37
    0.6332              -48.36          4.579          63.33          56.92         -2.619         -18.61          168.1          23.64          21.46          62.18          8.553
     0.653              -48.28          4.609          63.23          56.95          -2.64         -18.54          167.9          23.54          21.18          62.31          8.766
    0.6727              -48.19          4.645          63.12          56.98         -2.663         -18.46          167.6          23.42          20.85          62.46          9.015
    0.6925              -48.08          4.686          62.99          57.01         -2.691         -18.35          167.3          23.29          20.45          62.65          9.309
    0.7123              -47.94          4.736          62.84          57.06         -2.724         -18.23          167.0          23.13          19.99          62.86          9.658
    0.7321              -47.78          4.796          62.65          57.11         -2.764         -18.09          166.6          22.93          19.43          63.12          10.08
    0.7519              -47.59          4.868          62.43          57.17         -2.812         -17.92          166.1          22.69          18.75          63.43          10.58
    0.7717              -47.35          4.956          62.15          57.25          -2.87         -17.71          165.5          22.41          17.92          63.82           11.2
    0.7915              -47.06          5.065          61.81          57.34         -2.943         -17.44          164.8          22.05           16.9          64.29          11.97
    0.8112              -46.69            5.2          61.39          57.46         -3.033         -17.12          163.9          21.61          15.63          64.88          12.92
     0.831              -46.24          5.371          60.86           57.6         -3.146         -16.71          162.8          21.05          14.02          65.62          14.12
    0.8508              -45.65          5.588          60.18          57.79         -3.291         -16.18          161.3          20.34          11.98          66.56          15.64
    0.8706              -44.91          5.866          59.31          58.03         -3.475         -15.52          159.5          19.43          9.373          67.77          17.59
    0.8904              -43.95          6.223           58.2          58.33         -3.712         -14.66          157.1          18.27          6.023          69.32           20.1
    0.9102              -42.72          6.678          56.78          58.72         -4.015         -13.56          154.1          16.78          1.744           71.3           23.3
      0.93              -41.18          7.251           55.0          59.22         -4.396         -12.18          150.2          14.91         -3.636          73.79          27.32
    0.9498              -39.31          7.949          52.82          59.82          -4.86          -10.5          145.6          12.62         -10.19          76.82          32.22
    0.9695              -37.13          8.758           50.3          60.51         -5.398         -8.555          140.2          9.979         -17.79          80.33           37.9
    0.9893              -34.78          9.634          47.56          61.26         -5.981         -6.447          134.4          7.116         -26.02          84.14          44.05
     1.009              -32.43          10.51          44.83          62.01         -6.563         -4.338          128.5          4.252         -34.25          87.95           50.2
     1.029              -30.25          11.32          42.31          62.71         -7.101         -2.391          123.1          1.608         -41.85          91.46          55.89
     1.049              -28.38          12.02          40.13          63.31         -7.565        -0.7109          118.5        -0.6736          -48.4          94.49          60.79
